<?xml version="1.0" encoding="UTF-8" standalone="no"?>
<!DOCTYPE svg PUBLIC "-//W3C//DTD SVG 1.1//EN"
 "http://www.w3.org/Graphics/SVG/1.1/DTD/svg11.dtd">
<!-- Generated by graphviz version 6.0.1 (20220911.2005)
 -->
<!-- Pages: 1 -->
<svg width="109pt" height="271pt"
 viewBox="0.00 0.00 109.00 271.00" xmlns="http://www.w3.org/2000/svg" xmlns:xlink="http://www.w3.org/1999/xlink">
<g id="graph0" class="graph" transform="scale(1 1) rotate(0) translate(4 267)">
<polygon fill="white" stroke="none" points="-4,4 -4,-267 105,-267 105,4 -4,4"/>
<!-- 139880604042960 -->
<g id="node1" class="node">
<title>139880604042960</title>
<polygon fill="#caff70" stroke="black" points="77.5,-31 23.5,-31 23.5,0 77.5,0 77.5,-31"/>
<text text-anchor="middle" x="50.5" y="-7" font-family="monospace" font-size="10.00"> (2)</text>
</g>
<!-- 139880598210592 -->
<g id="node2" class="node">
<title>139880598210592</title>
<polygon fill="lightgrey" stroke="black" points="95,-86 6,-86 6,-67 95,-67 95,-86"/>
<text text-anchor="middle" x="50.5" y="-74" font-family="monospace" font-size="10.00">MulBackward0</text>
</g>
<!-- 139880598210592&#45;&gt;139880604042960 -->
<g id="edge4" class="edge">
<title>139880598210592&#45;&gt;139880604042960</title>
<path fill="none" stroke="black" d="M50.5,-66.79C50.5,-60.07 50.5,-50.4 50.5,-41.34"/>
<polygon fill="black" stroke="black" points="54,-41.19 50.5,-31.19 47,-41.19 54,-41.19"/>
</g>
<!-- 139880598210688 -->
<g id="node3" class="node">
<title>139880598210688</title>
<polygon fill="lightgrey" stroke="black" points="95,-141 6,-141 6,-122 95,-122 95,-141"/>
<text text-anchor="middle" x="50.5" y="-129" font-family="monospace" font-size="10.00">PowBackward0</text>
</g>
<!-- 139880598210688&#45;&gt;139880598210592 -->
<g id="edge1" class="edge">
<title>139880598210688&#45;&gt;139880598210592</title>
<path fill="none" stroke="black" d="M50.5,-121.75C50.5,-114.8 50.5,-104.85 50.5,-96.13"/>
<polygon fill="black" stroke="black" points="54,-96.09 50.5,-86.09 47,-96.09 54,-96.09"/>
</g>
<!-- 139880598210496 -->
<g id="node4" class="node">
<title>139880598210496</title>
<polygon fill="lightgrey" stroke="black" points="101,-196 0,-196 0,-177 101,-177 101,-196"/>
<text text-anchor="middle" x="50.5" y="-184" font-family="monospace" font-size="10.00">AccumulateGrad</text>
</g>
<!-- 139880598210496&#45;&gt;139880598210688 -->
<g id="edge2" class="edge">
<title>139880598210496&#45;&gt;139880598210688</title>
<path fill="none" stroke="black" d="M50.5,-176.75C50.5,-169.8 50.5,-159.85 50.5,-151.13"/>
<polygon fill="black" stroke="black" points="54,-151.09 50.5,-141.09 47,-151.09 54,-151.09"/>
</g>
<!-- 139880604042400 -->
<g id="node5" class="node">
<title>139880604042400</title>
<polygon fill="lightblue" stroke="black" points="77.5,-263 23.5,-263 23.5,-232 77.5,-232 77.5,-263"/>
<text text-anchor="middle" x="50.5" y="-239" font-family="monospace" font-size="10.00"> (2)</text>
</g>
<!-- 139880604042400&#45;&gt;139880598210496 -->
<g id="edge3" class="edge">
<title>139880604042400&#45;&gt;139880598210496</title>
<path fill="none" stroke="black" d="M50.5,-231.92C50.5,-224.22 50.5,-214.69 50.5,-206.43"/>
<polygon fill="black" stroke="black" points="54,-206.25 50.5,-196.25 47,-206.25 54,-206.25"/>
</g>
</g>
</svg>
