<?xml version="1.0" encoding="UTF-8" standalone="no"?>
<!DOCTYPE svg PUBLIC "-//W3C//DTD SVG 1.1//EN"
 "http://www.w3.org/Graphics/SVG/1.1/DTD/svg11.dtd">
<!-- Generated by graphviz version 8.1.0 (20230707.2238)
 -->
<!-- Pages: 1 -->
<svg width="108pt" height="280pt"
 viewBox="0.00 0.00 108.00 279.75" xmlns="http://www.w3.org/2000/svg" xmlns:xlink="http://www.w3.org/1999/xlink">
<g id="graph0" class="graph" transform="scale(1 1) rotate(0) translate(4 275.75)">
<polygon fill="white" stroke="none" points="-4,4 -4,-275.75 104,-275.75 104,4 -4,4"/>
<!-- 139961704962864 -->
<g id="node1" class="node">
<title>139961704962864</title>
<polygon fill="#caff70" stroke="black" points="77,-32.75 23,-32.75 23,0 77,0 77,-32.75"/>
<text text-anchor="middle" x="50" y="-7.25" font-family="monospace" font-size="10.00"> (2)</text>
</g>
<!-- 139961691146368 -->
<g id="node2" class="node">
<title>139961691146368</title>
<polygon fill="lightgrey" stroke="black" points="94,-89.5 6,-89.5 6,-68.75 94,-68.75 94,-89.5"/>
<text text-anchor="middle" x="50" y="-76" font-family="monospace" font-size="10.00">MulBackward0</text>
</g>
<!-- 139961691146368&#45;&gt;139961704962864 -->
<g id="edge4" class="edge">
<title>139961691146368&#45;&gt;139961704962864</title>
<path fill="none" stroke="black" d="M50,-68.36C50,-61.74 50,-52.64 50,-43.96"/>
<polygon fill="black" stroke="black" points="53.5,-44.04 50,-34.04 46.5,-44.04 53.5,-44.04"/>
</g>
<!-- 139961691146464 -->
<g id="node3" class="node">
<title>139961691146464</title>
<polygon fill="lightgrey" stroke="black" points="94,-146.25 6,-146.25 6,-125.5 94,-125.5 94,-146.25"/>
<text text-anchor="middle" x="50" y="-132.75" font-family="monospace" font-size="10.00">PowBackward0</text>
</g>
<!-- 139961691146464&#45;&gt;139961691146368 -->
<g id="edge1" class="edge">
<title>139961691146464&#45;&gt;139961691146368</title>
<path fill="none" stroke="black" d="M50,-125.09C50,-118.31 50,-109.05 50,-100.69"/>
<polygon fill="black" stroke="black" points="53.5,-100.83 50,-90.83 46.5,-100.83 53.5,-100.83"/>
</g>
<!-- 139961691146272 -->
<g id="node4" class="node">
<title>139961691146272</title>
<polygon fill="lightgrey" stroke="black" points="100,-203 0,-203 0,-182.25 100,-182.25 100,-203"/>
<text text-anchor="middle" x="50" y="-189.5" font-family="monospace" font-size="10.00">AccumulateGrad</text>
</g>
<!-- 139961691146272&#45;&gt;139961691146464 -->
<g id="edge2" class="edge">
<title>139961691146272&#45;&gt;139961691146464</title>
<path fill="none" stroke="black" d="M50,-181.84C50,-175.06 50,-165.8 50,-157.44"/>
<polygon fill="black" stroke="black" points="53.5,-157.58 50,-147.58 46.5,-157.58 53.5,-157.58"/>
</g>
<!-- 139961700562720 -->
<g id="node5" class="node">
<title>139961700562720</title>
<polygon fill="lightblue" stroke="black" points="77,-271.75 23,-271.75 23,-239 77,-239 77,-271.75"/>
<text text-anchor="middle" x="50" y="-246.25" font-family="monospace" font-size="10.00"> (2)</text>
</g>
<!-- 139961700562720&#45;&gt;139961691146272 -->
<g id="edge3" class="edge">
<title>139961700562720&#45;&gt;139961691146272</title>
<path fill="none" stroke="black" d="M50,-238.73C50,-231.17 50,-222.01 50,-213.92"/>
<polygon fill="black" stroke="black" points="53.5,-214.15 50,-204.15 46.5,-214.15 53.5,-214.15"/>
</g>
</g>
</svg>